<svg xmlns="http://www.w3.org/2000/svg" xmlns:xlink="http://www.w3.org/1999/xlink" width="2061.857" height="1181.869" viewBox="0 0 2061.857 1181.869">
  <defs>
    <filter id="Exclusion_19" x="68.25" y="0" width="996.824" height="1175.192" filterUnits="userSpaceOnUse">
      <feOffset dy="3" input="SourceAlpha"/>
      <feGaussianBlur stdDeviation="3" result="blur"/>
      <feFlood flood-opacity="0.161"/>
      <feComposite operator="in" in2="blur"/>
      <feComposite in="SourceGraphic"/>
    </filter>
    <filter id="Exclusion_20" x="46.255" y="0.768" width="996.824" height="1174.702" filterUnits="userSpaceOnUse">
      <feOffset dy="3" input="SourceAlpha"/>
      <feGaussianBlur stdDeviation="3" result="blur-2"/>
      <feFlood flood-opacity="0.161"/>
      <feComposite operator="in" in2="blur-2"/>
      <feComposite in="SourceGraphic"/>
    </filter>
    <filter id="Exclusion_21" x="22.472" y="1.597" width="996.825" height="1173.935" filterUnits="userSpaceOnUse">
      <feOffset dy="3" input="SourceAlpha"/>
      <feGaussianBlur stdDeviation="3" result="blur-3"/>
      <feFlood flood-opacity="0.161"/>
      <feComposite operator="in" in2="blur-3"/>
      <feComposite in="SourceGraphic"/>
    </filter>
    <filter id="Exclusion_26" x="1065.032" y="5.478" width="996.825" height="1176.391" filterUnits="userSpaceOnUse">
      <feOffset dx="3" dy="10" input="SourceAlpha"/>
      <feGaussianBlur stdDeviation="3" result="blur-4"/>
      <feFlood flood-opacity="0.161"/>
      <feComposite operator="in" in2="blur-4"/>
      <feComposite in="SourceGraphic"/>
    </filter>
    <filter id="Exclusion_25" x="1040.037" y="0.246" width="996.825" height="1174.883" filterUnits="userSpaceOnUse">
      <feOffset dy="3" input="SourceAlpha"/>
      <feGaussianBlur stdDeviation="3" result="blur-5"/>
      <feFlood flood-opacity="0.161"/>
      <feComposite operator="in" in2="blur-5"/>
      <feComposite in="SourceGraphic"/>
    </filter>
    <filter id="Exclusion_24" x="1016.255" y="1.077" width="996.825" height="1174.115" filterUnits="userSpaceOnUse">
      <feOffset dy="3" input="SourceAlpha"/>
      <feGaussianBlur stdDeviation="3" result="blur-6"/>
      <feFlood flood-opacity="0.161"/>
      <feComposite operator="in" in2="blur-6"/>
      <feComposite in="SourceGraphic"/>
    </filter>
    <filter id="Exclusion_22" x="0" y="1.598" width="996.824" height="1173.889" filterUnits="userSpaceOnUse">
      <feOffset dy="3" input="SourceAlpha"/>
      <feGaussianBlur stdDeviation="3" result="blur-7"/>
      <feFlood flood-opacity="0.161"/>
      <feComposite operator="in" in2="blur-7"/>
      <feComposite in="SourceGraphic"/>
    </filter>
  </defs>
  <g id="Group_11" data-name="Group 11" transform="translate(3375.45 -1606.135)">
    <g transform="matrix(1, 0, 0, 1, -3375.45, 1606.14)" filter="url(#Exclusion_19)">
      <path id="Exclusion_19-2" data-name="Exclusion 19" d="M919.824,1157.192H59a58.725,58.725,0,0,1-32.988-10.076,59.168,59.168,0,0,1-21.376-25.958A58.632,58.632,0,0,1,0,1098.192V59A58.729,58.729,0,0,1,10.076,26.013,59.17,59.17,0,0,1,36.035,4.637,58.63,58.63,0,0,1,59,0H919.824a58.727,58.727,0,0,1,32.988,10.076,59.171,59.171,0,0,1,21.376,25.958A58.631,58.631,0,0,1,978.825,59V1098.192a58.726,58.726,0,0,1-10.076,32.988,59.171,59.171,0,0,1-25.958,21.376A58.628,58.628,0,0,1,919.824,1157.192ZM36.167,1053.5a16.025,16.025,0,0,0-11.356,4.663,15.823,15.823,0,0,0,0,22.515,16.159,16.159,0,0,0,22.712,0,15.823,15.823,0,0,0,0-22.515A16.026,16.026,0,0,0,36.167,1053.5Zm0-166a16.026,16.026,0,0,0-11.356,4.663,15.823,15.823,0,0,0,0,22.515,16.159,16.159,0,0,0,22.712,0,15.823,15.823,0,0,0,0-22.515A16.026,16.026,0,0,0,36.167,887.5Zm0-166a16.024,16.024,0,0,0-11.356,4.663,15.823,15.823,0,0,0,0,22.515,16.159,16.159,0,0,0,22.712,0,15.823,15.823,0,0,0,0-22.515A16.025,16.025,0,0,0,36.167,721.5Zm0-166a16.026,16.026,0,0,0-11.356,4.663,15.823,15.823,0,0,0,0,22.515,16.158,16.158,0,0,0,22.712,0,15.823,15.823,0,0,0,0-22.515A16.026,16.026,0,0,0,36.167,555.5Zm0-166a16.026,16.026,0,0,0-11.356,4.663,15.823,15.823,0,0,0,0,22.515,16.16,16.16,0,0,0,22.712,0,15.823,15.823,0,0,0,0-22.515A16.026,16.026,0,0,0,36.167,389.5Zm0-166a16.025,16.025,0,0,0-11.356,4.663,15.823,15.823,0,0,0,0,22.515,16.159,16.159,0,0,0,22.712,0,15.823,15.823,0,0,0,0-22.515A16.025,16.025,0,0,0,36.167,223.5Zm0-166a16.026,16.026,0,0,0-11.356,4.663,15.823,15.823,0,0,0,0,22.515,16.159,16.159,0,0,0,22.712,0,15.823,15.823,0,0,0,0-22.515A16.026,16.026,0,0,0,36.167,57.5Z" transform="translate(1056.07 1163.19) rotate(180)" fill="#fc9ab1"/>
    </g>
    <g transform="matrix(1, 0, 0, 1, -3375.45, 1606.14)" filter="url(#Exclusion_20)">
      <path id="Exclusion_20-2" data-name="Exclusion 20" d="M919.824,1156.7H59a58.726,58.726,0,0,1-32.988-10.076,59.168,59.168,0,0,1-21.376-25.958A58.632,58.632,0,0,1,0,1097.7V59A58.728,58.728,0,0,1,10.076,26.013,59.173,59.173,0,0,1,36.035,4.637,58.63,58.63,0,0,1,59,0H919.824a58.725,58.725,0,0,1,32.988,10.076,59.172,59.172,0,0,1,21.376,25.958A58.631,58.631,0,0,1,978.825,59V1097.7a58.724,58.724,0,0,1-10.076,32.988,59.172,59.172,0,0,1-25.958,21.376A58.63,58.63,0,0,1,919.824,1156.7ZM36.167,1053.476a16.025,16.025,0,0,0-11.356,4.664,15.824,15.824,0,0,0,0,22.516,16.16,16.16,0,0,0,22.712,0,15.824,15.824,0,0,0,0-22.516A16.025,16.025,0,0,0,36.167,1053.476Zm0-166a16.026,16.026,0,0,0-11.356,4.663,15.823,15.823,0,0,0,0,22.515,16.158,16.158,0,0,0,22.712,0,15.823,15.823,0,0,0,0-22.515A16.026,16.026,0,0,0,36.167,887.477Zm0-166a16.026,16.026,0,0,0-11.356,4.663,15.823,15.823,0,0,0,0,22.514,16.16,16.16,0,0,0,22.712,0,15.823,15.823,0,0,0,0-22.514A16.026,16.026,0,0,0,36.167,721.477Zm0-166a16.026,16.026,0,0,0-11.356,4.663,15.823,15.823,0,0,0,0,22.515,16.159,16.159,0,0,0,22.712,0,15.823,15.823,0,0,0,0-22.515A16.026,16.026,0,0,0,36.167,555.477Zm0-166a16.025,16.025,0,0,0-11.356,4.663,15.823,15.823,0,0,0,0,22.515,16.16,16.16,0,0,0,22.712,0,15.823,15.823,0,0,0,0-22.515A16.025,16.025,0,0,0,36.167,389.478Zm0-166a16.025,16.025,0,0,0-11.356,4.663,15.823,15.823,0,0,0,0,22.515,16.159,16.159,0,0,0,22.712,0,15.823,15.823,0,0,0,0-22.515A16.025,16.025,0,0,0,36.167,223.477Zm0-166a16.026,16.026,0,0,0-11.356,4.663,15.823,15.823,0,0,0,0,22.515,16.159,16.159,0,0,0,22.712,0,15.823,15.823,0,0,0,0-22.515A16.026,16.026,0,0,0,36.167,57.478Z" transform="translate(1034.08 1163.47) rotate(180)" fill="#f7db78"/>
    </g>
    <g transform="matrix(1, 0, 0, 1, -3375.45, 1606.14)" filter="url(#Exclusion_21)">
      <path id="Exclusion_21-2" data-name="Exclusion 21" d="M919.824,1155.935H59a58.727,58.727,0,0,1-32.988-10.076A59.168,59.168,0,0,1,4.637,1119.9,58.629,58.629,0,0,1,0,1096.934V59A58.728,58.728,0,0,1,10.076,26.013,59.173,59.173,0,0,1,36.035,4.637,58.63,58.63,0,0,1,59,0H919.824a58.725,58.725,0,0,1,32.988,10.076,59.172,59.172,0,0,1,21.376,25.958A58.631,58.631,0,0,1,978.825,59V1096.934a58.727,58.727,0,0,1-10.076,32.988A59.171,59.171,0,0,1,942.79,1151.3,58.63,58.63,0,0,1,919.824,1155.935ZM36.167,1053.443a16.025,16.025,0,0,0-11.356,4.663,15.823,15.823,0,0,0,0,22.515,16.158,16.158,0,0,0,22.712,0,15.823,15.823,0,0,0,0-22.515A16.026,16.026,0,0,0,36.167,1053.443Zm0-166a16.026,16.026,0,0,0-11.356,4.663,15.823,15.823,0,0,0,0,22.515,16.159,16.159,0,0,0,22.712,0,15.823,15.823,0,0,0,0-22.515A16.026,16.026,0,0,0,36.167,887.443Zm0-166a16.025,16.025,0,0,0-11.356,4.663,15.823,15.823,0,0,0,0,22.515,16.159,16.159,0,0,0,22.712,0,15.823,15.823,0,0,0,0-22.515A16.025,16.025,0,0,0,36.167,721.443Zm0-166a16.026,16.026,0,0,0-11.356,4.663,15.823,15.823,0,0,0,0,22.515,16.159,16.159,0,0,0,22.712,0,15.823,15.823,0,0,0,0-22.515A16.026,16.026,0,0,0,36.167,555.443Zm0-166a16.025,16.025,0,0,0-11.356,4.663,15.823,15.823,0,0,0,0,22.515,16.16,16.16,0,0,0,22.712,0,15.823,15.823,0,0,0,0-22.515A16.025,16.025,0,0,0,36.167,389.444Zm0-166a16.025,16.025,0,0,0-11.356,4.663,15.823,15.823,0,0,0,0,22.515,16.159,16.159,0,0,0,22.712,0,15.823,15.823,0,0,0,0-22.515A16.025,16.025,0,0,0,36.167,223.443Zm0-166a16.026,16.026,0,0,0-11.356,4.663,15.823,15.823,0,0,0,0,22.515,16.159,16.159,0,0,0,22.712,0,15.823,15.823,0,0,0,0-22.515A16.026,16.026,0,0,0,36.167,57.443Z" transform="translate(1010.3 1163.53) rotate(180)" fill="#bad5b5"/>
    </g>
    <g transform="matrix(1, 0, 0, 1, -3375.45, 1606.14)" filter="url(#Exclusion_26)">
      <path id="Exclusion_26-2" data-name="Exclusion 26" d="M919.824,1157.391H59a58.727,58.727,0,0,1-32.988-10.076,59.169,59.169,0,0,1-21.376-25.958A58.627,58.627,0,0,1,0,1098.392V59A58.728,58.728,0,0,1,10.076,26.013,59.173,59.173,0,0,1,36.035,4.637,58.63,58.63,0,0,1,59,0H919.824a58.727,58.727,0,0,1,32.988,10.076,59.172,59.172,0,0,1,21.376,25.958A58.631,58.631,0,0,1,978.825,59V1098.392a58.724,58.724,0,0,1-10.076,32.987,59.169,59.169,0,0,1-25.958,21.376A58.629,58.629,0,0,1,919.824,1157.391ZM36.167,1053.508a16.025,16.025,0,0,0-11.356,4.663,15.823,15.823,0,0,0,0,22.515,16.159,16.159,0,0,0,22.712,0,15.823,15.823,0,0,0,0-22.515A16.026,16.026,0,0,0,36.167,1053.508Zm0-166a16.026,16.026,0,0,0-11.356,4.663,15.823,15.823,0,0,0,0,22.515,16.159,16.159,0,0,0,22.712,0,15.823,15.823,0,0,0,0-22.515A16.026,16.026,0,0,0,36.167,887.508Zm0-166a16.025,16.025,0,0,0-11.356,4.663,15.823,15.823,0,0,0,0,22.515,16.16,16.16,0,0,0,22.712,0,15.823,15.823,0,0,0,0-22.515A16.026,16.026,0,0,0,36.167,721.507Zm0-166a16.026,16.026,0,0,0-11.356,4.663,15.823,15.823,0,0,0,0,22.515,16.159,16.159,0,0,0,22.712,0,15.823,15.823,0,0,0,0-22.515A16.026,16.026,0,0,0,36.167,555.508Zm0-166a16.026,16.026,0,0,0-11.356,4.663,15.823,15.823,0,0,0,0,22.515,16.16,16.16,0,0,0,22.712,0,15.823,15.823,0,0,0,0-22.515A16.026,16.026,0,0,0,36.167,389.508Zm0-166a16.025,16.025,0,0,0-11.356,4.663,15.823,15.823,0,0,0,0,22.515,16.159,16.159,0,0,0,22.712,0,15.823,15.823,0,0,0,0-22.515A16.025,16.025,0,0,0,36.167,223.508Zm0-166a16.026,16.026,0,0,0-11.356,4.663,15.823,15.823,0,0,0,0,22.515,16.159,16.159,0,0,0,22.712,0,15.823,15.823,0,0,0,0-22.515A16.026,16.026,0,0,0,36.167,57.508Z" transform="translate(1071.03 5.48)" fill="#fc9ab1"/>
    </g>
    <g transform="matrix(1, 0, 0, 1, -3375.45, 1606.14)" filter="url(#Exclusion_25)">
      <path id="Exclusion_25-2" data-name="Exclusion 25" d="M919.824,1156.883H59a58.728,58.728,0,0,1-32.988-10.076,59.168,59.168,0,0,1-21.376-25.958A58.628,58.628,0,0,1,0,1097.883V59A58.728,58.728,0,0,1,10.076,26.013,59.173,59.173,0,0,1,36.035,4.637,58.63,58.63,0,0,1,59,0H919.824a58.725,58.725,0,0,1,32.988,10.076,59.172,59.172,0,0,1,21.376,25.958A58.631,58.631,0,0,1,978.825,59V1097.883a58.723,58.723,0,0,1-10.076,32.987,59.17,59.17,0,0,1-25.958,21.376A58.633,58.633,0,0,1,919.824,1156.883Zm-883.657-103.4a16.024,16.024,0,0,0-11.356,4.663,15.824,15.824,0,0,0,0,22.515,16.158,16.158,0,0,0,22.712,0,15.824,15.824,0,0,0,0-22.515A16.025,16.025,0,0,0,36.167,1053.484Zm0-166a16.026,16.026,0,0,0-11.356,4.663,15.823,15.823,0,0,0,0,22.514,16.159,16.159,0,0,0,22.712,0,15.823,15.823,0,0,0,0-22.514A16.026,16.026,0,0,0,36.167,887.486Zm0-166a16.025,16.025,0,0,0-11.356,4.663,15.823,15.823,0,0,0,0,22.515,16.158,16.158,0,0,0,22.712,0,15.823,15.823,0,0,0,0-22.515A16.026,16.026,0,0,0,36.167,721.485Zm0-166a16.027,16.027,0,0,0-11.356,4.663,15.823,15.823,0,0,0,0,22.514,16.16,16.16,0,0,0,22.712,0,15.823,15.823,0,0,0,0-22.514A16.027,16.027,0,0,0,36.167,555.485Zm0-166a16.026,16.026,0,0,0-11.356,4.663,15.824,15.824,0,0,0,0,22.515,16.159,16.159,0,0,0,22.712,0,15.824,15.824,0,0,0,0-22.515A16.026,16.026,0,0,0,36.167,389.485Zm0-166a16.025,16.025,0,0,0-11.356,4.663,15.823,15.823,0,0,0,0,22.515,16.158,16.158,0,0,0,22.712,0,15.823,15.823,0,0,0,0-22.515A16.025,16.025,0,0,0,36.167,223.485Zm0-166a16.026,16.026,0,0,0-11.356,4.663,15.823,15.823,0,0,0,0,22.515,16.159,16.159,0,0,0,22.712,0,15.823,15.823,0,0,0,0-22.515A16.026,16.026,0,0,0,36.167,57.486Z" transform="translate(1049.04 6.25)" fill="#f7db78"/>
    </g>
    <g transform="matrix(1, 0, 0, 1, -3375.45, 1606.14)" filter="url(#Exclusion_24)">
      <path id="Exclusion_24-2" data-name="Exclusion 24" d="M919.824,1156.115H59a58.728,58.728,0,0,1-32.988-10.076,59.168,59.168,0,0,1-21.376-25.958A58.628,58.628,0,0,1,0,1097.115V59A58.728,58.728,0,0,1,10.076,26.013,59.173,59.173,0,0,1,36.035,4.637,58.63,58.63,0,0,1,59,0H919.824a58.725,58.725,0,0,1,32.988,10.076,59.172,59.172,0,0,1,21.376,25.958A58.631,58.631,0,0,1,978.825,59V1097.115a58.723,58.723,0,0,1-10.076,32.987,59.17,59.17,0,0,1-25.958,21.376A58.633,58.633,0,0,1,919.824,1156.115ZM36.167,1053.45a16.025,16.025,0,0,0-11.356,4.663,15.823,15.823,0,0,0,0,22.515,16.158,16.158,0,0,0,22.712,0,15.823,15.823,0,0,0,0-22.515A16.026,16.026,0,0,0,36.167,1053.45Zm0-166a16.025,16.025,0,0,0-11.356,4.663,15.823,15.823,0,0,0,0,22.515,16.159,16.159,0,0,0,22.712,0,15.823,15.823,0,0,0,0-22.515A16.025,16.025,0,0,0,36.167,887.451Zm0-166a16.025,16.025,0,0,0-11.356,4.663,15.823,15.823,0,0,0,0,22.515,16.159,16.159,0,0,0,22.712,0,15.823,15.823,0,0,0,0-22.515A16.025,16.025,0,0,0,36.167,721.451Zm0-166a16.026,16.026,0,0,0-11.356,4.663,15.823,15.823,0,0,0,0,22.515,16.159,16.159,0,0,0,22.712,0,15.823,15.823,0,0,0,0-22.515A16.026,16.026,0,0,0,36.167,555.451Zm0-166a16.025,16.025,0,0,0-11.356,4.663,15.823,15.823,0,0,0,0,22.515,16.16,16.16,0,0,0,22.712,0,15.823,15.823,0,0,0,0-22.515A16.025,16.025,0,0,0,36.167,389.452Zm0-166a16.025,16.025,0,0,0-11.356,4.663,15.823,15.823,0,0,0,0,22.515,16.159,16.159,0,0,0,22.712,0,15.823,15.823,0,0,0,0-22.515A16.025,16.025,0,0,0,36.167,223.451Zm0-166a16.025,16.025,0,0,0-11.356,4.663,15.823,15.823,0,0,0,0,22.515,16.159,16.159,0,0,0,22.712,0,15.823,15.823,0,0,0,0-22.515A16.025,16.025,0,0,0,36.167,57.451Z" transform="translate(1025.25 7.08)" fill="#bad5b5"/>
    </g>
    <g transform="matrix(1, 0, 0, 1, -3375.45, 1606.14)" filter="url(#Exclusion_22)">
      <path id="Exclusion_22-2" data-name="Exclusion 22" d="M919.824,1155.889H59a58.728,58.728,0,0,1-32.988-10.076,59.169,59.169,0,0,1-21.376-25.958A58.629,58.629,0,0,1,0,1096.889V59A58.728,58.728,0,0,1,10.076,26.013,59.173,59.173,0,0,1,36.035,4.637,58.63,58.63,0,0,1,59,0H919.824a58.725,58.725,0,0,1,32.988,10.076,59.172,59.172,0,0,1,21.376,25.958A58.631,58.631,0,0,1,978.825,59V1096.889a58.722,58.722,0,0,1-10.076,32.987,59.17,59.17,0,0,1-25.958,21.376A58.633,58.633,0,0,1,919.824,1155.889ZM36.167,1053.44a16.024,16.024,0,0,0-11.356,4.663,15.823,15.823,0,0,0,0,22.515,16.159,16.159,0,0,0,22.712,0,15.823,15.823,0,0,0,0-22.515A16.025,16.025,0,0,0,36.167,1053.44Zm0-166A16.026,16.026,0,0,0,24.812,892.1a15.823,15.823,0,0,0,0,22.515,16.159,16.159,0,0,0,22.712,0,15.823,15.823,0,0,0,0-22.515A16.026,16.026,0,0,0,36.167,887.441Zm0-166A16.025,16.025,0,0,0,24.812,726.1a15.823,15.823,0,0,0,0,22.515,16.159,16.159,0,0,0,22.712,0,15.823,15.823,0,0,0,0-22.515A16.025,16.025,0,0,0,36.167,721.44Zm0-166A16.026,16.026,0,0,0,24.812,560.1a15.823,15.823,0,0,0,0,22.515,16.159,16.159,0,0,0,22.712,0,15.823,15.823,0,0,0,0-22.515A16.026,16.026,0,0,0,36.167,555.44Zm0-166A16.025,16.025,0,0,0,24.812,394.1a15.823,15.823,0,0,0,0,22.515,16.16,16.16,0,0,0,22.712,0,15.823,15.823,0,0,0,0-22.515A16.025,16.025,0,0,0,36.167,389.441Zm0-166A16.025,16.025,0,0,0,24.812,228.1a15.823,15.823,0,0,0,0,22.515,16.159,16.159,0,0,0,22.712,0,15.823,15.823,0,0,0,0-22.515A16.025,16.025,0,0,0,36.167,223.44Zm0-166A16.026,16.026,0,0,0,24.812,62.1a15.823,15.823,0,0,0,0,22.515,16.159,16.159,0,0,0,22.712,0,15.823,15.823,0,0,0,0-22.515A16.026,16.026,0,0,0,36.167,57.441Z" transform="translate(987.82 1163.49) rotate(180)" fill="#0091d4"/>
    </g>
  </g>
</svg>
