<svg id="linkedin-icon-2" xmlns="http://www.w3.org/2000/svg" width="40" height="40" viewBox="0 0 40 40">
  <path id="Path_32" data-name="Path 32" d="M0,2.865A2.913,2.913,0,0,1,2.956,0H37.044A2.912,2.912,0,0,1,40,2.865v34.27A2.912,2.912,0,0,1,37.044,40H2.956A2.912,2.912,0,0,1,0,37.136V2.865Z" fill="#069"/>
  <path id="Path_33" data-name="Path 33" d="M43.568,70.117V52.109H37.583V70.117h5.986ZM40.577,49.651a3.121,3.121,0,1,0,.04-6.223,3.12,3.12,0,1,0-.079,6.222h.039Zm6.3,20.466h5.985V60.062a4.1,4.1,0,0,1,.2-1.46,3.276,3.276,0,0,1,3.071-2.189c2.165,0,3.032,1.651,3.032,4.072v9.633h5.985V59.792c0-5.531-2.952-8.1-6.89-8.1a5.963,5.963,0,0,0-5.434,3.034h.04V52.11H46.882c.078,1.689,0,18.008,0,18.008Z" transform="translate(-31.413 -36.642)" fill="#fff"/>
</svg>
