<svg xmlns="http://www.w3.org/2000/svg" xmlns:xlink="http://www.w3.org/1999/xlink" width="105.937" height="77.967" viewBox="0 0 105.937 77.967">
  <defs>
    <filter id="Rectangle_16" x="0" y="0" width="105.937" height="77.967" filterUnits="userSpaceOnUse">
      <feOffset dy="3" input="SourceAlpha"/>
      <feGaussianBlur stdDeviation="3" result="blur"/>
      <feFlood flood-opacity="0.161"/>
      <feComposite operator="in" in2="blur"/>
      <feComposite in="SourceGraphic"/>
    </filter>
  </defs>
  <g id="Group_4" data-name="Group 4" transform="matrix(0.999, -0.035, 0.035, 0.999, -337.199, -1939.103)">
    <g transform="matrix(1, 0.03, -0.03, 1, 269.32, 1949.69)" filter="url(#Rectangle_16)">
      <rect id="Rectangle_16-2" data-name="Rectangle 16" width="86" height="57" rx="24" transform="matrix(1, -0.03, 0.03, 1, 9, 9)" fill="#fff"/>
    </g>
    <g id="linkedin-icon-2" transform="translate(301 1968)">
      <path id="Path_32" data-name="Path 32" d="M0,2.865A2.913,2.913,0,0,1,2.956,0H37.044A2.912,2.912,0,0,1,40,2.865v34.27A2.912,2.912,0,0,1,37.044,40H2.956A2.912,2.912,0,0,1,0,37.136V2.865Z" fill="#069"/>
      <path id="Path_33" data-name="Path 33" d="M43.568,70.117V52.109H37.583V70.117h5.986ZM40.577,49.651a3.121,3.121,0,1,0,.04-6.223,3.12,3.12,0,1,0-.079,6.222h.039Zm6.3,20.466h5.985V60.062a4.1,4.1,0,0,1,.2-1.46,3.276,3.276,0,0,1,3.071-2.189c2.165,0,3.032,1.651,3.032,4.072v9.633h5.985V59.792c0-5.531-2.952-8.1-6.89-8.1a5.963,5.963,0,0,0-5.434,3.034h.04V52.11H46.882c.078,1.689,0,18.008,0,18.008Z" transform="translate(-31.413 -36.642)" fill="#fff"/>
    </g>
  </g>
</svg>
