<svg xmlns="http://www.w3.org/2000/svg" width="62.429" height="36.375" viewBox="0 0 62.429 36.375">
  <g id="mail_black_24dp" transform="matrix(0.999, -0.035, 0.035, 0.999, 0, 1.396)">
    <path id="Path_28" data-name="Path 28" d="M0,0H40V35H0Z" fill="none"/>
    <path id="Path_29" data-name="Path 29" d="M34.4,4H5.6A3.5,3.5,0,0,0,2,7.375v20.25A3.5,3.5,0,0,0,5.6,31H34.4A3.5,3.5,0,0,0,38,27.625V7.375A3.5,3.5,0,0,0,34.4,4Zm-.72,7.172-11.772,6.9a3.767,3.767,0,0,1-3.816,0L6.32,11.172A1.426,1.426,0,0,1,5.6,9.957,1.533,1.533,0,0,1,7.94,8.742L20,15.813,32.06,8.742A1.533,1.533,0,0,1,34.4,9.957,1.426,1.426,0,0,1,33.68,11.172Z" transform="translate(23.498 -3.249)" fill="#1C1C1C"/>
  </g>
</svg>