<svg xmlns="http://www.w3.org/2000/svg" width="25" height="50" viewBox="0 0 25 50">
  <g id="mongodb-icon-1" transform="translate(-8.813 0)">
    <path id="Path_25" data-name="Path 25" d="M15.918.087,17.4,2.593a7.7,7.7,0,0,0,1.122,1.253,36.526,36.526,0,0,1,3.485,3.54,29.649,29.649,0,0,1,5.426,9.831,21.923,21.923,0,0,1,1.151,6.671,22.329,22.329,0,0,1-7.652,17.374,21.643,21.643,0,0,1-2.731,2.1,1.144,1.144,0,0,1-.97-.681,5.241,5.241,0,0,1-.758-1.961,8.543,8.543,0,0,1-.243-2.478v-.381c-.042-.081-.5-37.578-.315-37.771Z" transform="translate(5.221 0.049)" fill="#599636"/>
    <path id="Path_26" data-name="Path 26" d="M21.139.053c-.061-.109-.122-.027-.183.027a2.343,2.343,0,0,1-.515,1.5,7.646,7.646,0,0,1-1.334,1.2,26.728,26.728,0,0,0-6.517,7.462,27.678,27.678,0,0,0-3.757,12.2,36.654,36.654,0,0,0,1.09,8.606A25.925,25.925,0,0,0,17.533,41.8a32.579,32.579,0,0,0,2.7,2.07c.273,0,.3-.219.365-.381a6.832,6.832,0,0,0,.273-1.062l.609-4.084Z" transform="translate(0 0)" fill="#6cac48"/>
    <path id="Path_27" data-name="Path 27" d="M17.772,31.54a3.531,3.531,0,0,1,.758-1.661,1.85,1.85,0,0,1-.849-.708,4.821,4.821,0,0,1-.452-.9,14.108,14.108,0,0,1-.637-3.512v-.708c-.151.109-.183,1.034-.183,1.172a24.54,24.54,0,0,1-.546,3.676,3.038,3.038,0,0,1-.487,1.416.491.491,0,0,0,.03.191,14.754,14.754,0,0,1,.788,4.412v.547c0,.653-.03.516.574.734a2.841,2.841,0,0,1,.758.272c.183,0,.212-.136.212-.245l-.09-.9V32.823a5.972,5.972,0,0,1,.122-1.281Z" transform="translate(4.852 13.527)" fill="#c2bfbf"/>
  </g>
</svg>
