<svg xmlns="http://www.w3.org/2000/svg" width="50" height="50" viewBox="0 0 50 50">
  <g id="next-js" transform="translate(-0.5 -0.325)">
    <path id="Path_15" data-name="Path 15" d="M23.863.338c-.108.01-.45.044-.758.068A25.06,25.06,0,0,0,5.138,10.767,24.744,24.744,0,0,0,.725,21.689,19.132,19.132,0,0,0,.5,25.329,19.132,19.132,0,0,0,.725,28.97a25.1,25.1,0,0,0,17.1,20.2,26.435,26.435,0,0,0,5.279,1.095,46.058,46.058,0,0,0,4.79,0A25.244,25.244,0,0,0,36.9,47.628c.43-.22.513-.279.455-.327-.039-.029-1.872-2.487-4.071-5.459l-4-5.4-5.01-7.413c-2.757-4.076-5.024-7.408-5.044-7.408s-.039,3.289-.049,7.311c-.015,7.042-.02,7.325-.108,7.492a.888.888,0,0,1-.43.445c-.156.078-.293.093-1.031.093h-.846l-.225-.142a.914.914,0,0,1-.327-.357l-.1-.22.01-9.8.015-9.8.152-.191a1.341,1.341,0,0,1,.362-.3c.2-.1.279-.108,1.124-.108,1,0,1.163.039,1.422.323.073.078,2.786,4.164,6.031,9.085s7.683,11.641,9.863,14.939l3.959,6,.2-.132a25.663,25.663,0,0,0,5.137-4.506A24.884,24.884,0,0,0,50.275,28.97a19.132,19.132,0,0,0,.225-3.641,19.132,19.132,0,0,0-.225-3.641,25.1,25.1,0,0,0-17.1-20.2A26.25,26.25,0,0,0,27.968.4C27.5.353,24.268.3,23.863.338ZM34.1,15.458a.986.986,0,0,1,.494.577c.039.127.049,2.844.039,8.967l-.015,8.787-1.549-2.375-1.554-2.375V22.651c0-4.129.02-6.451.049-6.563a1,1,0,0,1,.484-.616c.2-.1.274-.112,1.041-.112.723,0,.85.01,1.012.1Z"/>
    <path id="Path_16" data-name="Path 16" d="M758.38,943.1c-.171.107-.225.181-.073.1.108-.064.284-.2.254-.2A1.008,1.008,0,0,0,758.38,943.1Zm-.337.22c-.088.068-.088.073.02.02a.3.3,0,0,0,.108-.073C758.17,943.23,758.145,943.24,758.043,943.323Zm-.244.147c-.088.068-.088.073.02.02a.3.3,0,0,0,.108-.073C757.925,943.376,757.9,943.386,757.8,943.469Zm-.244.147c-.088.068-.088.073.02.02a.3.3,0,0,0,.108-.073C757.681,943.523,757.657,943.533,757.554,943.616Zm-.371.2c-.186.1-.176.137.01.044a.51.51,0,0,0,.147-.1C757.339,943.723,757.334,943.728,757.183,943.811Z" transform="translate(-719.571 -896.608)"/>
  </g>
</svg>
