<svg xmlns="http://www.w3.org/2000/svg" width="45" height="50" viewBox="0 0 45 50">
  <g id="nodejs-icon" transform="translate(-0.603 -0.584)">
    <path id="Path_11" data-name="Path 11" d="M21.073,1.118a4.129,4.129,0,0,1,4.06,0Q34.4,6.4,43.675,11.678A3.854,3.854,0,0,1,45.6,14.993V36.179a3.894,3.894,0,0,1-2.072,3.387q-9.24,5.253-18.477,10.51a4.012,4.012,0,0,1-4.1-.115q-2.77-1.619-5.544-3.232a3.265,3.265,0,0,1-1.069-.776c.236-.32.657-.36,1-.5a12.891,12.891,0,0,0,2.187-1.029.507.507,0,0,1,.569.034c1.579.913,3.145,1.853,4.729,2.757.338.2.68-.064.969-.227q9.068-5.167,18.142-10.323a.606.606,0,0,0,.33-.6q.006-10.483,0-20.967a.656.656,0,0,0-.387-.654Q32.669,9.219,23.465,3.984a.635.635,0,0,0-.723,0Q13.535,9.215,4.331,14.451a.648.648,0,0,0-.389.651q0,10.483,0,20.968a.594.594,0,0,0,.334.588q2.457,1.4,4.917,2.8a3.772,3.772,0,0,0,3.074.415,2.351,2.351,0,0,0,1.51-2.209c.008-6.948,0-13.9.006-20.844a.521.521,0,0,1,.565-.534c.787-.005,1.575-.011,2.362,0a.548.548,0,0,1,.514.635c0,6.992.008,13.984-.005,20.976a5.331,5.331,0,0,1-2.467,4.8,7.541,7.541,0,0,1-6.789-.188c-1.8-.906-3.52-1.976-5.289-2.947A3.885,3.885,0,0,1,.6,36.179V14.993A3.861,3.861,0,0,1,2.6,11.636Q11.836,6.379,21.073,1.118Z" transform="translate(0 0)" fill="#8cc84b"/>
    <path id="Path_12" data-name="Path 12" d="M112.223,85.671c2.686-.174,5.562-.1,7.979,1.231a6.1,6.1,0,0,1,2.942,5.265.565.565,0,0,1-.613.419c-.779,0-1.559.011-2.338-.005-.331.013-.523-.295-.564-.589a3.589,3.589,0,0,0-1.7-2.48,10.019,10.019,0,0,0-4.672-.674,6.3,6.3,0,0,0-3.344.84,2.147,2.147,0,0,0-.7,2.387c.25.6.937.794,1.5.972,3.237.854,6.668.769,9.843,1.892a4.647,4.647,0,0,1,3.051,2.736,5.884,5.884,0,0,1-.982,5.577,7.732,7.732,0,0,1-4.161,2.261,19.83,19.83,0,0,1-6.281.269,9.85,9.85,0,0,1-5.525-2.1,5.87,5.87,0,0,1-1.867-4.611.525.525,0,0,1,.574-.466c.785-.006,1.57-.009,2.355,0a.552.552,0,0,1,.562.548,3.606,3.606,0,0,0,1.328,2.525c1.6,1.038,3.6.967,5.423,1,1.513-.068,3.212-.088,4.447-1.1a2.49,2.49,0,0,0,.668-2.365c-.191-.7-.916-1.025-1.539-1.238-3.2-1.019-6.665-.649-9.83-1.8a4.8,4.8,0,0,1-3.021-2.654,5.471,5.471,0,0,1,1.077-5.657,8.654,8.654,0,0,1,5.4-2.186Z" transform="translate(-85.777 -69.878)" fill="#8cc84b"/>
  </g>
</svg>
