<svg xmlns="http://www.w3.org/2000/svg" width="50" height="50" viewBox="0 0 50 50">
  <g id="react-2" transform="translate(-175.7 -78)">
    <path id="Path_2" data-name="Path 2" d="M225.7,103.006c0-3.719-4.148-7.244-10.508-9.43,1.468-7.279.815-13.069-2.059-14.923a4.089,4.089,0,0,0-2.283-.641v2.552a2.152,2.152,0,0,1,1.162.3c1.386.893,1.987,4.292,1.519,8.663-.112,1.076-.3,2.209-.52,3.365a44.493,44.493,0,0,0-6.472-1.247,54.884,54.884,0,0,0-4.24-5.722c3.322-3.468,6.441-5.367,8.561-5.367V78c-2.8,0-6.472,2.243-10.181,6.134-3.71-3.868-7.379-6.088-10.181-6.088V80.6c2.11,0,5.238,1.888,8.561,5.333a53.187,53.187,0,0,0-4.209,5.711,42.882,42.882,0,0,0-6.482,1.259c-.234-1.144-.408-2.255-.53-3.319-.479-4.372.112-7.771,1.488-8.675a2.069,2.069,0,0,1,1.172-.3V78.057a4.156,4.156,0,0,0-2.3.641c-2.864,1.854-3.506,7.633-2.028,14.889-6.339,2.2-10.467,5.711-10.467,9.419s4.148,7.244,10.508,9.43c-1.468,7.279-.815,13.069,2.059,14.923a4.1,4.1,0,0,0,2.293.641c2.8,0,6.472-2.243,10.181-6.134,3.71,3.868,7.379,6.088,10.181,6.088a4.156,4.156,0,0,0,2.3-.641c2.864-1.854,3.506-7.633,2.028-14.889,6.319-2.186,10.446-5.711,10.446-9.419Zm-13.269-7.633c-.377,1.476-.846,3-1.376,4.52-.418-.916-.856-1.831-1.335-2.747s-.968-1.808-1.468-2.678a41.537,41.537,0,0,1,4.179.9Zm-4.668,12.188c-.795,1.545-1.61,3.01-2.456,4.372-1.519.149-3.057.229-4.607.229s-3.078-.08-4.586-.217c-.846-1.362-1.671-2.815-2.466-4.349-.775-1.5-1.478-3.021-2.12-4.555.632-1.534,1.345-3.067,2.11-4.566.795-1.545,1.61-3.01,2.456-4.372,1.519-.149,3.057-.229,4.607-.229s3.078.08,4.586.217c.846,1.362,1.671,2.815,2.466,4.349.775,1.5,1.478,3.021,2.12,4.555C209.23,104.528,208.527,106.061,207.763,107.561Zm3.292-1.488c.55,1.534,1.019,3.067,1.406,4.555a41.322,41.322,0,0,1-4.2.916c.5-.881,1-1.785,1.468-2.712S210.637,106.988,211.055,106.073ZM200.72,118.284a46.058,46.058,0,0,1-2.833-3.662c.917.046,1.855.08,2.8.08s1.906-.023,2.833-.08A43.685,43.685,0,0,1,200.72,118.284Zm-7.583-6.741a41.54,41.54,0,0,1-4.179-.9c.377-1.476.846-3,1.376-4.52.418.916.856,1.831,1.335,2.747S192.639,110.673,193.138,111.543Zm7.532-23.816A46.064,46.064,0,0,1,203.5,91.39c-.917-.046-1.855-.08-2.8-.08s-1.906.023-2.833.08A43.684,43.684,0,0,1,200.67,87.728Zm-7.542,6.741c-.5.881-1,1.785-1.468,2.712s-.907,1.831-1.325,2.747c-.55-1.534-1.019-3.067-1.406-4.555C190.264,95.018,191.67,94.709,193.128,94.468ZM183.9,108.8c-3.608-1.728-5.942-3.994-5.942-5.791s2.334-4.074,5.942-5.791a29.265,29.265,0,0,1,2.823-1.156,59.433,59.433,0,0,0,2.293,6.97,58.629,58.629,0,0,0-2.263,6.935A28.846,28.846,0,0,1,183.9,108.8Zm5.483,16.354c-1.386-.893-1.987-4.292-1.519-8.663.112-1.076.3-2.209.52-3.365a44.493,44.493,0,0,0,6.472,1.247,54.881,54.881,0,0,0,4.24,5.722c-3.322,3.468-6.441,5.367-8.561,5.367A2.222,2.222,0,0,1,189.387,125.15Zm24.174-8.721c.479,4.372-.112,7.771-1.488,8.675a2.069,2.069,0,0,1-1.172.3c-2.11,0-5.238-1.888-8.561-5.333a53.185,53.185,0,0,0,4.209-5.711,42.881,42.881,0,0,0,6.482-1.259C213.266,114.255,213.45,115.366,213.562,116.43Zm3.924-7.633a29.265,29.265,0,0,1-2.823,1.156,59.427,59.427,0,0,0-2.293-6.97,58.629,58.629,0,0,0,2.263-6.935,30.115,30.115,0,0,1,2.864,1.167c3.608,1.728,5.942,3.994,5.942,5.791S221.093,107.08,217.486,108.8Z" fill="#61dafb"/>
    <ellipse id="Ellipse_2" data-name="Ellipse 2" cx="4.658" cy="5.23" rx="4.658" ry="5.23" transform="translate(196.032 97.776)" fill="#61dafb"/>
  </g>
</svg>
