<svg xmlns="http://www.w3.org/2000/svg" width="70" height="50" viewBox="0 0 70 50">
  <g id="woocommerce" transform="translate(0)">
    <path id="Path_23" data-name="Path 23" d="M6.5,0H63.475C67.081,0,70,3.5,70,7.83v26.1c0,4.327-2.919,7.83-6.525,7.83H43.042L45.847,50,33.512,41.758H6.525c-3.606,0-6.525-3.5-6.525-7.83V7.83C-.028,3.537,2.89,0,6.5,0Z" transform="translate(0)" fill="#9b5c8f"/>
    <path id="Path_24" data-name="Path 24" d="M13.277,16.622a2.187,2.187,0,0,1,1.793-1.059q2.177-.205,2.476,2.458,1.323,10.7,2.874,18.131l6.232-14.239q.854-1.947,2.134-2.049c1.252-.1,2.02.853,2.333,2.868a73.984,73.984,0,0,0,2.7,11.678q1.11-13.009,3.756-18.78a2.182,2.182,0,0,1,3.671-.82,2.854,2.854,0,0,1,.882,1.946,3.469,3.469,0,0,1-.284,1.639c-1.11,2.459-2.021,6.59-2.76,12.326a76.114,76.114,0,0,0-.8,13.01,4.76,4.76,0,0,1-.341,2.254,1.864,1.864,0,0,1-1.508,1.229,2.684,2.684,0,0,1-2.248-1.263Q30.222,41.087,27.9,31.407q-2.775,6.556-4.1,9.834c-1.679,3.859-3.1,5.839-4.3,5.942-.768.068-1.423-.717-1.992-2.356q-2.177-6.71-4.695-25.917a3.357,3.357,0,0,1,.455-2.288Zm61.151,5.361a6.768,6.768,0,0,0-4.553-3.961,6.285,6.285,0,0,0-1.537-.2c-2.732,0-4.951,1.707-6.687,5.122a20.886,20.886,0,0,0-2.219,9.629A15.371,15.371,0,0,0,60.8,39.328a6.767,6.767,0,0,0,4.553,3.961,6.269,6.269,0,0,0,1.537.205c2.76,0,4.98-1.707,6.687-5.122a21.134,21.134,0,0,0,2.219-9.663,14.636,14.636,0,0,0-1.366-6.727Zm-3.585,9.458a9.728,9.728,0,0,1-2.163,5.053c-.825.888-1.593,1.263-2.3,1.093-.683-.171-1.252-.888-1.679-2.219a10.188,10.188,0,0,1-.512-3.107,14.183,14.183,0,0,1,.2-2.492A12.238,12.238,0,0,1,65.891,25.7c.939-1.673,1.935-2.356,2.959-2.117.683.171,1.252.888,1.679,2.219a10.2,10.2,0,0,1,.512,3.107,14.308,14.308,0,0,1-.2,2.526ZM56.614,21.983a6.827,6.827,0,0,0-4.553-3.961,6.283,6.283,0,0,0-1.537-.2c-2.732,0-4.951,1.707-6.687,5.122a20.889,20.889,0,0,0-2.219,9.629,15.371,15.371,0,0,0,1.366,6.761,6.767,6.767,0,0,0,4.553,3.961,6.271,6.271,0,0,0,1.537.205c2.76,0,4.98-1.707,6.687-5.122a21.13,21.13,0,0,0,2.219-9.663,15.011,15.011,0,0,0-1.366-6.727ZM53,31.441a9.73,9.73,0,0,1-2.163,5.053c-.825.888-1.594,1.263-2.305,1.093-.683-.171-1.252-.888-1.679-2.219a10.2,10.2,0,0,1-.512-3.107,14.183,14.183,0,0,1,.2-2.492A12.233,12.233,0,0,1,48.049,25.7c.939-1.673,1.935-2.356,2.959-2.117.683.171,1.252.888,1.679,2.219a10.188,10.188,0,0,1,.512,3.107,12.023,12.023,0,0,1-.2,2.526Z" transform="translate(-9.29 -9.485)" fill="#fff"/>
  </g>
</svg>
