<svg xmlns="http://www.w3.org/2000/svg" xmlns:xlink="http://www.w3.org/1999/xlink" width="50" height="50" viewBox="0 0 50 50">
  <defs>
    <clipPath id="clip-path">
      <path id="Path_39" data-name="Path 39" d="M0,0H50V50H0Z"/>
    </clipPath>
  </defs>
  <g id="wordpress-blue" clip-path="url(#clip-path)">
    <path id="Path_34" data-name="Path 34" d="M203.257,41.2h-8.675v.92c2.713,0,3.15.582,3.15,4.022v6.2c0,3.441-.435,4.071-3.15,4.071-2.083-.291-3.489-1.405-5.428-3.538l-2.229-2.423c3-.534,4.6-2.423,4.6-4.556,0-2.665-2.277-4.7-6.542-4.7h-8.529v.92c2.713,0,3.15.582,3.15,4.022v6.2c0,3.441-.436,4.071-3.15,4.071v.921H186.1v-.921c-2.713,0-3.15-.63-3.15-4.071V50.6h.824l5.379,6.735h14.1c6.93,0,9.935-3.683,9.935-8.093s-3.005-8.045-9.935-8.045Zm-20.3,7.9V42.651h1.987a2.972,2.972,0,0,1,3.15,3.247,2.958,2.958,0,0,1-3.15,3.2ZM203.4,55.833h-.34c-1.744,0-1.987-.435-1.987-2.665V42.651H203.4c5.04,0,5.96,3.683,5.96,6.542C209.363,52.149,208.442,55.833,203.4,55.833ZM149.466,50.89,152.809,41c.97-2.859.534-3.682-2.568-3.682v-.97h9.111v.97c-3.053,0-3.78.726-4.991,4.264l-5.525,16.574h-.63L143.262,42.99l-5.04,15.169h-.631l-5.379-16.574c-1.163-3.538-1.938-4.264-4.749-4.264v-.97h10.758v.97c-2.86,0-3.635.678-2.617,3.682l3.247,9.887,4.894-14.539h.921Zm16.476,7.075c-5.33,0-9.692-3.925-9.692-8.723,0-4.749,4.362-8.675,9.692-8.675s9.692,3.925,9.692,8.675C175.634,54.04,171.273,57.964,165.942,57.964Zm0-15.895c-4.458,0-6.01,4.021-6.01,7.172,0,3.2,1.552,7.173,6.01,7.173,4.507,0,6.058-3.974,6.058-7.173C172,46.091,170.449,42.07,165.942,42.07Z" transform="translate(-75.447 -21.517)" fill="#00749a"/>
    <path id="Path_35" data-name="Path 35" d="M350.768,56.365v.969h-11.1v-.969c3.247,0,3.829-.824,3.829-5.671V42.941c0-4.847-.582-5.621-3.829-5.621v-.97H349.7c4.991,0,7.755,2.568,7.755,6.01,0,3.344-2.763,5.961-7.755,5.961h-2.763v2.374c0,4.847.582,5.671,3.829,5.671ZM349.7,38.095h-2.763v8.433H349.7c2.714,0,3.974-1.89,3.974-4.167C353.675,40.034,352.415,38.095,349.7,38.095Zm41.046,14.685-.243.872c-.435,1.6-.97,2.181-4.41,2.181h-.679c-2.52,0-2.956-.582-2.956-4.022V49.581c3.78,0,4.071.339,4.071,2.859h.921V45.219h-.921c0,2.52-.291,2.859-4.071,2.859V42.651h2.665c3.441,0,3.974.582,4.41,2.181l.243.921h.775l-.339-4.555H375.966v.92c2.713,0,3.15.582,3.15,4.022v6.2c0,3.148-.37,3.94-2.51,4.054-2.034-.311-3.43-1.42-5.34-3.521l-2.229-2.423c3-.534,4.6-2.423,4.6-4.556,0-2.665-2.278-4.7-6.542-4.7H358.57v.92c2.713,0,3.15.582,3.15,4.022v6.2c0,3.441-.436,4.071-3.15,4.071v.921h9.644v-.921c-2.713,0-3.15-.63-3.15-4.071V50.6h.824l5.379,6.735h19.917l.291-4.555h-.728ZM365.064,49.1V42.651h1.987A2.972,2.972,0,0,1,370.2,45.9a2.958,2.958,0,0,1-3.15,3.2Zm35.521,8.869a7.165,7.165,0,0,1-4.362-1.648,3.478,3.478,0,0,0-.775,1.648h-.921V51.277h.969a5.378,5.378,0,0,0,5.476,5.088c1.551,0,2.811-.872,2.811-2.326,0-1.26-1.114-2.229-3.1-3.15l-2.763-1.308a5.273,5.273,0,0,1-3.392-4.653c0-2.326,2.181-4.313,5.186-4.313a6.069,6.069,0,0,1,3.78,1.26,2.738,2.738,0,0,0,.63-1.309h.921v5.719h-1.018c-.34-2.278-1.6-4.168-4.167-4.168-1.357,0-2.617.775-2.617,1.987,0,1.26,1.017,1.938,3.344,3l2.665,1.308c2.327,1.114,3.247,2.908,3.247,4.362C406.5,55.832,403.832,57.964,400.585,57.964Zm14.926,0a7.162,7.162,0,0,1-4.362-1.648,3.478,3.478,0,0,0-.775,1.648h-.921V51.277h.969a5.377,5.377,0,0,0,5.476,5.088c1.551,0,2.811-.872,2.811-2.326,0-1.26-1.115-2.229-3.1-3.15l-2.763-1.308a5.274,5.274,0,0,1-3.392-4.653c0-2.326,2.181-4.313,5.186-4.313a6.07,6.07,0,0,1,3.78,1.26,2.734,2.734,0,0,0,.629-1.309h.921v5.719h-1.017c-.34-2.278-1.6-4.168-4.167-4.168-1.357,0-2.617.775-2.617,1.987,0,1.26,1.018,1.938,3.344,3l2.665,1.308c2.326,1.114,3.246,2.908,3.246,4.362,0,3.052-2.665,5.184-5.912,5.184Z" transform="translate(-201.054 -21.516)" fill="#464342"/>
    <g id="Group_10" data-name="Group 10">
      <path id="Path_36" data-name="Path 36" d="M8.708,30.154A21.451,21.451,0,0,0,20.8,49.456l-10.23-28.03a21.365,21.365,0,0,0-1.857,8.728Zm35.925-1.082a11.292,11.292,0,0,0-1.769-5.915c-1.087-1.767-2.106-3.263-2.106-5.029a3.714,3.714,0,0,1,3.6-3.807c.1,0,.185.012.278.017a21.443,21.443,0,0,0-32.4,4.037c.5.015.978.025,1.38.025,2.243,0,5.716-.272,5.716-.272a.886.886,0,0,1,.138,1.767s-1.162.137-2.455.2l7.81,23.23,4.694-14.076L26.176,20.1c-1.155-.068-2.249-.2-2.249-.2a.886.886,0,0,1,.135-1.767s3.542.272,5.649.272c2.243,0,5.716-.272,5.716-.272a.886.886,0,0,1,.138,1.767s-1.164.137-2.455.2l7.75,23.054L43,36c.928-2.966,1.633-5.1,1.633-6.933Z" transform="translate(-5.154 -5.154)" fill="#00749a"/>
      <path id="Path_37" data-name="Path 37" d="M52.851,48.211l-6.435,18.7a21.453,21.453,0,0,0,13.18-.342,1.817,1.817,0,0,1-.153-.3ZM71.293,36.046a16.46,16.46,0,0,1,.144,2.205,20.231,20.231,0,0,1-1.631,7.682L63.256,64.874a21.45,21.45,0,0,0,8.037-28.828Z" transform="translate(-27.474 -21.336)" fill="#00749a"/>
      <path id="Path_38" data-name="Path 38" d="M25,0A25,25,0,1,0,50,25,25.028,25.028,0,0,0,25,0Zm0,48.854A23.854,23.854,0,1,1,48.853,25,23.882,23.882,0,0,1,25,48.854Z" fill="#00749a"/>
    </g>
  </g>
</svg>
