<svg xmlns="http://www.w3.org/2000/svg" width="233.215" height="218.807" viewBox="0 0 233.215 218.807">
  <g id="layer1" transform="translate(-102.067 -431.569) rotate(8)">
    <path id="path2533" d="M299.139,456.767c-2.967,1.823-12.026-1.2-13.757-2.683-79.9-68.532-78.807-36.774-36.583,27.4.927,1.411.639,8.107-.829,8.915-77.251,42.486-88.242,71.823,21.56,35.579,4.125-1.36,4.687,1.509,5.145,3.585,17.372,79.239,29.177,108.859,45.051-2.941.34-2.385,2.668-3.44,5.027-3.029,67.821,11.8,110.811,13.082,13.118-40.8-1.586-.87-3.446-6.593-2.544-8.215C386.465,382.462,364.8,401.622,299.139,456.767Zm.592,40.168a5.111,5.111,0,1,1-5.1-5.377A5.244,5.244,0,0,1,299.731,496.935Zm-14.195-12.392a3.5,3.5,0,1,1-3.492-3.765A3.635,3.635,0,0,1,285.537,484.544Zm-2.91,18.3a3.5,3.5,0,1,1-3.492-3.76A3.635,3.635,0,0,1,282.627,502.848Zm25.644-19a3.5,3.5,0,1,1-3.492-3.76A3.637,3.637,0,0,1,308.271,483.848Zm5.32,16.909A3.5,3.5,0,1,1,310.1,497,3.635,3.635,0,0,1,313.591,500.757Zm-14.246,12.727a3.5,3.5,0,1,1-3.492-3.76A3.637,3.637,0,0,1,299.345,513.484Zm-24.011-38.85a2.952,2.952,0,1,1-2.946-3.131A3.047,3.047,0,0,1,275.334,474.634Zm41.131-1.993a2.952,2.952,0,1,1-2.946-3.137A3.047,3.047,0,0,1,316.465,472.641Zm9.879,32.3A2.952,2.952,0,1,1,323.4,501.8,3.042,3.042,0,0,1,326.344,504.939Zm-26.607,22.883a2.949,2.949,0,1,1-2.941-3.131A3.046,3.046,0,0,1,299.737,527.823ZM269.921,507.6a2.952,2.952,0,1,1-2.946-3.137A3.05,3.05,0,0,1,269.921,507.6Zm-3.708-41.033a2.376,2.376,0,1,1-2.374-2.472A2.422,2.422,0,0,1,266.212,466.563Zm56.9-3.42a2.376,2.376,0,1,1-2.374-2.472A2.426,2.426,0,0,1,323.114,463.144Zm14.246,45.025a2.376,2.376,0,1,1-2.374-2.472A2.422,2.422,0,0,1,337.36,508.169Zm-37.238,31.345a2.376,2.376,0,1,1-2.374-2.472A2.419,2.419,0,0,1,300.123,539.514Zm-41.605-27.359a2.376,2.376,0,1,1-2.374-2.467A2.424,2.424,0,0,1,258.518,512.155Zm.288-53.1a2,2,0,1,1-1.993-2.189A2.1,2.1,0,0,1,258.806,459.059Zm70.767-4.465a2,2,0,1,1-2-2.184A2.1,2.1,0,0,1,329.573,454.594Zm18.047,56.423a2,2,0,1,1-1.993-2.184A2.1,2.1,0,0,1,347.62,511.017Zm-99.357,4.749a2,2,0,1,1-2-2.184A2.1,2.1,0,0,1,248.263,515.765Zm52.622,34.384a2,2,0,1,1-1.993-2.184A2.1,2.1,0,0,1,300.885,550.15Zm-61.836-31.057a1.615,1.615,0,1,1-1.617-1.617A1.616,1.616,0,0,1,239.049,519.093Zm61.645,40.56a1.615,1.615,0,1,1-1.612-1.617A1.611,1.611,0,0,1,300.695,559.652Zm55.666-45.406a1.615,1.615,0,1,1-1.617-1.617A1.62,1.62,0,0,1,356.36,514.246Zm-20.519-67.821a1.615,1.615,0,1,1-1.612-1.617A1.611,1.611,0,0,1,335.841,446.425Zm-83.973,5.7a1.615,1.615,0,1,1-1.612-1.612A1.616,1.616,0,0,1,251.869,452.122Z" fill="none" stroke="#f8f2f6" stroke-width="2"/>
  </g>
</svg>
